<svg width="157.734" height="18.117" viewBox="0 0 157.734 18.117" xmlns="http://www.w3.org/2000/svg"><g id="svgGroup" stroke-linecap="round" fill-rule="evenodd" font-size="9pt" stroke="#000" stroke-width="0" fill="#ffffff" style="stroke:#000;stroke-width:0;fill:#ffffff"><path d="M 49.383 0 L 43.065 17.982 L 40.662 17.982 L 37.881 10.341 L 35.208 17.982 L 32.778 17.982 L 26.271 0 L 28.89 0 L 33.966 14.067 L 36.558 6.696 L 34.128 0 L 36.747 0 L 39.123 6.588 L 41.85 14.067 L 46.764 0 L 49.383 0 Z M 139.131 17.982 L 136.701 17.982 L 136.701 9.531 A 2.62 2.62 0 0 0 136.477 8.44 A 2.551 2.551 0 0 0 135.932 7.668 A 2.576 2.576 0 0 0 134.064 6.912 A 3.218 3.218 0 0 0 134.055 6.912 Q 132.975 6.912 132.165 7.668 A 2.387 2.387 0 0 0 131.384 9.401 A 3.057 3.057 0 0 0 131.382 9.504 L 131.382 17.982 L 128.925 17.982 L 128.925 9.504 A 2.764 2.764 0 0 0 128.795 8.639 A 2.274 2.274 0 0 0 128.169 7.668 Q 127.359 6.912 126.252 6.912 A 2.497 2.497 0 0 0 124.44 7.645 A 2.97 2.97 0 0 0 124.416 7.668 A 2.76 2.76 0 0 0 123.787 8.605 A 2.637 2.637 0 0 0 123.606 9.585 L 123.606 17.982 L 121.176 17.982 L 121.176 4.806 L 123.606 4.806 L 123.606 5.805 Q 124.065 5.238 124.808 4.86 Q 125.55 4.482 126.252 4.482 A 5.196 5.196 0 0 1 127.724 4.685 A 4.657 4.657 0 0 1 128.426 4.954 Q 129.411 5.427 130.14 6.264 Q 130.869 5.427 131.868 4.954 Q 132.867 4.482 134.055 4.482 Q 135.108 4.482 136.026 4.86 Q 136.944 5.238 137.646 5.94 Q 138.348 6.642 138.74 7.573 Q 139.131 8.505 139.131 9.531 L 139.131 17.982 Z M 15.984 3.483 L 14.121 5.049 A 9.856 9.856 0 0 0 12.938 3.933 Q 12.197 3.348 11.417 3.003 A 6.139 6.139 0 0 0 11.34 2.97 Q 10.125 2.511 8.883 2.511 Q 7.29 2.511 5.859 3.267 A 6.248 6.248 0 0 0 3.361 5.706 A 7.813 7.813 0 0 0 3.105 6.183 Q 2.403 7.533 2.403 9.072 Q 2.403 9.936 2.646 10.8 Q 3.159 12.906 4.968 14.283 Q 5.805 14.931 6.831 15.282 Q 7.857 15.633 8.937 15.633 Q 10.368 15.633 11.624 15.052 Q 12.879 14.472 13.851 13.419 L 13.851 11.61 L 11.367 11.61 L 11.367 9.18 L 16.254 9.18 L 16.254 14.31 A 9.113 9.113 0 0 1 15.208 15.554 A 7.497 7.497 0 0 1 14.391 16.254 A 9.845 9.845 0 0 1 13.498 16.844 A 8.518 8.518 0 0 1 13.149 17.037 Q 11.178 18.09 8.964 18.09 Q 7.587 18.09 6.318 17.685 Q 4.644 17.199 3.267 16.065 Q 1.89 14.931 1.026 13.311 Q 0 11.448 0 9.18 Q 0 8.478 0.054 8.1 Q 0.216 6.615 0.824 5.278 Q 1.431 3.942 2.403 2.916 Q 3.375 1.89 4.631 1.188 Q 5.886 0.486 7.317 0.216 Q 8.127 0.054 8.991 0.054 Q 11.232 0.054 13.257 1.188 A 10.919 10.919 0 0 1 15.908 3.396 A 12.244 12.244 0 0 1 15.984 3.483 Z M 157.734 17.982 L 155.358 17.982 L 155.358 9.882 A 2.873 2.873 0 0 0 154.495 7.804 A 3.672 3.672 0 0 0 154.467 7.776 A 2.861 2.861 0 0 0 152.4 6.912 A 3.548 3.548 0 0 0 152.361 6.912 A 2.873 2.873 0 0 0 150.283 7.775 A 3.672 3.672 0 0 0 150.255 7.803 A 3.101 3.101 0 0 0 149.615 8.744 A 3.496 3.496 0 0 0 149.607 8.761 A 2.817 2.817 0 0 0 149.374 9.652 A 2.636 2.636 0 0 0 149.364 9.882 L 149.364 17.982 L 147.015 17.982 L 147.015 4.806 L 149.364 4.806 L 149.364 5.913 A 3.674 3.674 0 0 1 150.2 5.176 A 4.662 4.662 0 0 1 150.714 4.887 A 4.188 4.188 0 0 1 151.594 4.571 A 3.395 3.395 0 0 1 152.361 4.482 Q 153.441 4.482 154.427 4.9 Q 155.412 5.319 156.168 6.075 Q 156.897 6.804 157.316 7.79 Q 157.734 8.775 157.734 9.882 L 157.734 17.982 Z M 103.977 17.982 L 101.412 17.982 L 99.198 11.664 L 93.582 11.664 L 91.368 17.982 L 88.803 17.982 L 95.04 0.054 L 97.74 0.054 L 103.977 17.982 Z M 86.562 12.258 L 75.627 12.258 A 2.01 2.01 0 0 0 75.756 12.951 Q 75.874 13.273 76.1 13.608 A 5.234 5.234 0 0 0 76.961 14.602 A 4.79 4.79 0 0 0 77.193 14.796 Q 78.327 15.687 79.839 15.687 A 4.286 4.286 0 0 0 83.182 14.124 A 6.645 6.645 0 0 0 83.754 13.365 L 85.806 14.58 A 8.331 8.331 0 0 1 84.468 16.246 A 7.083 7.083 0 0 1 83.214 17.199 Q 81.675 18.117 79.839 18.117 Q 78.462 18.117 77.22 17.591 Q 75.978 17.064 75.033 16.119 Q 74.088 15.174 73.562 13.932 Q 73.035 12.69 73.035 11.313 Q 73.035 9.936 73.562 8.68 Q 74.088 7.425 75.033 6.48 Q 75.951 5.535 77.207 5.022 Q 78.462 4.509 79.839 4.509 Q 81.216 4.509 82.472 5.022 Q 83.727 5.535 84.645 6.48 A 7.175 7.175 0 0 1 86.112 8.62 A 6.471 6.471 0 0 1 86.643 11.232 A 6.556 6.556 0 0 1 86.605 11.924 A 7.818 7.818 0 0 1 86.562 12.258 Z M 118.476 17.982 L 116.1 17.982 L 116.1 15.903 Q 115.236 16.929 114.062 17.523 Q 112.887 18.117 111.618 18.117 A 6.864 6.864 0 0 1 109.338 17.742 A 6.493 6.493 0 0 1 108.945 17.59 Q 107.703 17.064 106.785 16.092 Q 105.84 15.12 105.314 13.865 Q 104.787 12.609 104.787 11.205 Q 104.787 9.801 105.314 8.545 Q 105.84 7.29 106.785 6.318 Q 107.703 5.346 108.945 4.82 Q 110.187 4.293 111.618 4.293 A 6.013 6.013 0 0 1 113.273 4.514 A 5.295 5.295 0 0 1 114.17 4.86 Q 115.317 5.427 116.1 6.426 L 116.1 0.054 L 118.476 0.054 L 118.476 17.982 Z M 62.343 17.982 L 59.913 17.982 L 59.913 15.93 Q 59.049 16.929 57.915 17.523 Q 56.781 18.117 55.512 18.117 A 6.783 6.783 0 0 1 52.995 17.651 A 6.541 6.541 0 0 1 52.88 17.604 Q 51.651 17.091 50.706 16.146 Q 49.761 15.228 49.235 13.973 Q 48.708 12.717 48.708 11.34 Q 48.708 9.963 49.235 8.708 Q 49.761 7.452 50.706 6.507 Q 51.651 5.562 52.88 5.049 A 6.752 6.752 0 0 1 55.468 4.536 A 7.665 7.665 0 0 1 55.512 4.536 Q 56.808 4.536 57.956 5.076 Q 59.103 5.616 59.913 6.588 L 59.913 4.806 L 62.343 4.806 L 62.343 17.982 Z M 26.676 17.982 L 18.954 17.982 L 18.954 0.027 L 21.276 0.027 L 21.276 15.552 L 26.676 15.552 L 26.676 17.982 Z M 73.305 5.751 L 71.064 7.074 Q 70.416 6.777 69.903 6.777 A 2.523 2.523 0 0 0 68.974 6.943 A 2.305 2.305 0 0 0 68.121 7.533 A 2.829 2.829 0 0 0 67.542 8.433 A 2.618 2.618 0 0 0 67.365 9.396 L 67.365 17.982 L 65.043 17.982 L 65.043 9.396 Q 65.043 7.938 65.786 6.723 Q 66.528 5.508 67.824 4.833 Q 68.796 4.374 69.903 4.374 Q 70.794 4.374 71.604 4.698 Q 72.303 4.978 73.063 5.559 A 9.55 9.55 0 0 1 73.305 5.751 Z M 144.234 17.982 L 141.966 17.982 L 141.966 4.482 L 144.234 4.482 L 144.234 17.982 Z M 111.618 6.75 Q 110.727 6.75 109.917 7.087 Q 109.107 7.425 108.513 8.046 Q 107.919 8.667 107.568 9.49 Q 107.217 10.314 107.217 11.205 Q 107.217 13.014 108.513 14.364 Q 109.107 14.985 109.917 15.336 Q 110.727 15.687 111.618 15.687 Q 112.509 15.687 113.333 15.336 Q 114.156 14.985 114.75 14.364 Q 116.046 13.014 116.046 11.205 Q 116.046 10.314 115.695 9.49 Q 115.344 8.667 114.75 8.046 Q 114.156 7.425 113.333 7.087 Q 112.509 6.75 111.618 6.75 Z M 55.512 6.939 Q 54.621 6.939 53.798 7.276 A 4.309 4.309 0 0 0 52.532 8.064 A 4.094 4.094 0 0 0 52.38 8.208 Q 51.786 8.802 51.449 9.625 Q 51.111 10.449 51.111 11.34 Q 51.111 12.231 51.449 13.041 Q 51.786 13.851 52.38 14.445 Q 52.974 15.039 53.798 15.377 Q 54.621 15.714 55.512 15.714 Q 56.403 15.714 57.213 15.377 Q 58.023 15.039 58.617 14.445 Q 59.211 13.851 59.549 13.041 Q 59.886 12.231 59.886 11.34 Q 59.886 10.449 59.549 9.625 A 4.309 4.309 0 0 0 58.761 8.36 A 4.094 4.094 0 0 0 58.617 8.208 Q 58.023 7.614 57.213 7.276 Q 56.403 6.939 55.512 6.939 Z M 75.627 10.179 L 84.051 10.179 A 2.734 2.734 0 0 0 83.645 8.755 A 3.474 3.474 0 0 0 83.471 8.492 A 4.082 4.082 0 0 0 82.269 7.402 A 4.95 4.95 0 0 0 81.918 7.209 Q 80.946 6.723 79.839 6.723 Q 78.732 6.723 77.76 7.209 A 4.496 4.496 0 0 0 76.744 7.896 A 3.914 3.914 0 0 0 76.208 8.491 A 3.104 3.104 0 0 0 75.768 9.325 A 2.648 2.648 0 0 0 75.627 10.179 Z M 98.415 9.396 L 96.39 3.537 L 94.338 9.396 L 98.415 9.396 Z M 142.207 2.185 A 1.195 1.195 0 0 0 143.073 2.538 Q 143.586 2.538 143.951 2.173 A 1.456 1.456 0 0 0 143.962 2.162 A 1.195 1.195 0 0 0 144.315 1.296 Q 144.315 0.783 143.951 0.418 A 1.456 1.456 0 0 0 143.939 0.407 A 1.195 1.195 0 0 0 143.073 0.054 Q 142.56 0.054 142.196 0.418 A 1.456 1.456 0 0 0 142.184 0.43 A 1.195 1.195 0 0 0 141.831 1.296 Q 141.831 1.809 142.196 2.173 A 1.456 1.456 0 0 0 142.207 2.185 Z" vector-effect="non-scaling-stroke"/></g></svg>