<svg width="192.54" height="40.26" viewBox="0 0 192.54 40.26" xmlns="http://www.w3.org/2000/svg"><g id="svgGroup" stroke-linecap="round" fill-rule="evenodd" font-size="9pt" stroke="#000" stroke-width="0" fill="#ffffff" style="stroke:#000;stroke-width:0;fill:#ffffff"><path d="M 109.74 0 L 95.7 39.96 L 90.36 39.96 L 84.18 22.98 L 78.24 39.96 L 72.84 39.96 L 58.38 0 L 64.2 0 L 75.48 31.26 L 81.24 14.88 L 75.84 0 L 81.66 0 L 86.94 14.64 L 93 31.26 L 103.92 0 L 109.74 0 Z M 35.52 7.74 L 31.38 11.22 Q 28.518 8.065 25.371 6.674 A 13.631 13.631 0 0 0 25.2 6.6 Q 22.5 5.58 19.74 5.58 Q 16.2 5.58 13.02 7.26 Q 9.06 9.36 6.9 13.74 Q 5.34 16.74 5.34 20.16 Q 5.34 22.08 5.88 24 Q 7.02 28.68 11.04 31.74 Q 12.9 33.18 15.18 33.96 Q 17.46 34.74 19.86 34.74 Q 23.04 34.74 25.83 33.45 Q 28.62 32.16 30.78 29.82 L 30.78 25.8 L 25.26 25.8 L 25.26 20.4 L 36.12 20.4 L 36.12 31.8 A 20.251 20.251 0 0 1 33.796 34.564 A 16.66 16.66 0 0 1 31.98 36.12 A 21.878 21.878 0 0 1 29.996 37.431 A 18.93 18.93 0 0 1 29.22 37.86 Q 24.84 40.2 19.92 40.2 Q 16.86 40.2 14.04 39.3 Q 10.32 38.22 7.26 35.7 Q 4.2 33.18 2.28 29.58 A 18.565 18.565 0 0 1 0.009 21.026 A 21.919 21.919 0 0 1 0 20.4 Q 0 18.84 0.12 18 Q 0.48 14.7 1.83 11.73 Q 3.18 8.76 5.34 6.48 Q 7.5 4.2 10.29 2.64 Q 13.08 1.08 16.26 0.48 Q 18.06 0.12 19.98 0.12 Q 24.96 0.12 29.46 2.64 A 24.264 24.264 0 0 1 35.351 7.546 A 27.218 27.218 0 0 1 35.52 7.74 Z M 192.36 27.24 L 168.06 27.24 Q 168.06 28.551 168.931 29.962 A 8.378 8.378 0 0 0 169.11 30.24 A 11.631 11.631 0 0 0 171.024 32.449 A 10.645 10.645 0 0 0 171.54 32.88 Q 174.06 34.86 177.42 34.86 A 9.524 9.524 0 0 0 184.849 31.388 A 14.767 14.767 0 0 0 186.12 29.7 L 190.68 32.4 A 18.514 18.514 0 0 1 187.706 36.102 A 15.74 15.74 0 0 1 184.92 38.22 Q 181.5 40.26 177.42 40.26 Q 174.36 40.26 171.6 39.09 Q 168.84 37.92 166.74 35.82 Q 164.64 33.72 163.47 30.96 Q 162.3 28.2 162.3 25.14 Q 162.3 22.08 163.47 19.29 Q 164.64 16.5 166.74 14.4 Q 168.78 12.3 171.57 11.16 Q 174.36 10.02 177.42 10.02 Q 180.48 10.02 183.27 11.16 Q 186.06 12.3 188.1 14.4 A 15.944 15.944 0 0 1 191.36 19.155 A 14.38 14.38 0 0 1 192.54 24.96 Q 192.54 26.04 192.36 27.24 Z M 138.54 39.96 L 133.14 39.96 L 133.14 35.4 Q 131.22 37.62 128.7 38.94 Q 126.18 40.26 123.36 40.26 A 15.073 15.073 0 0 1 117.767 39.224 A 14.536 14.536 0 0 1 117.51 39.12 Q 114.78 37.98 112.68 35.88 Q 110.58 33.84 109.41 31.05 Q 108.24 28.26 108.24 25.2 Q 108.24 22.14 109.41 19.35 Q 110.58 16.56 112.68 14.46 Q 114.78 12.36 117.51 11.22 A 15.004 15.004 0 0 1 123.263 10.08 A 17.023 17.023 0 0 1 123.36 10.08 Q 126.24 10.08 128.79 11.28 Q 131.34 12.48 133.14 14.64 L 133.14 10.68 L 138.54 10.68 L 138.54 39.96 Z M 59.28 39.96 L 42.12 39.96 L 42.12 0.06 L 47.28 0.06 L 47.28 34.56 L 59.28 34.56 L 59.28 39.96 Z M 162.9 12.78 L 157.92 15.72 Q 156.805 15.209 155.871 15.094 A 4.329 4.329 0 0 0 155.34 15.06 A 5.606 5.606 0 0 0 153.275 15.429 A 5.121 5.121 0 0 0 151.38 16.74 A 6.287 6.287 0 0 0 150.094 18.74 A 5.817 5.817 0 0 0 149.7 20.88 L 149.7 39.96 L 144.54 39.96 L 144.54 20.88 Q 144.54 17.64 146.19 14.94 Q 147.84 12.24 150.72 10.74 Q 152.88 9.72 155.34 9.72 Q 157.32 9.72 159.12 10.44 Q 160.674 11.062 162.362 12.354 A 21.222 21.222 0 0 1 162.9 12.78 Z M 123.36 15.42 Q 121.38 15.42 119.55 16.17 Q 117.72 16.92 116.4 18.24 A 9.45 9.45 0 0 0 114.38 21.269 A 10.783 10.783 0 0 0 114.33 21.39 Q 113.58 23.22 113.58 25.2 Q 113.58 27.18 114.33 28.98 Q 115.08 30.78 116.4 32.1 A 9.45 9.45 0 0 0 119.429 34.12 A 10.783 10.783 0 0 0 119.55 34.17 Q 121.38 34.92 123.36 34.92 Q 125.34 34.92 127.14 34.17 Q 128.94 33.42 130.26 32.1 Q 131.58 30.78 132.33 28.98 Q 133.08 27.18 133.08 25.2 Q 133.08 23.22 132.33 21.39 Q 131.58 19.56 130.26 18.24 Q 128.94 16.92 127.14 16.17 Q 125.34 15.42 123.36 15.42 Z M 168.06 22.62 L 186.78 22.62 A 6.076 6.076 0 0 0 185.879 19.456 A 7.72 7.72 0 0 0 185.49 18.87 A 9.07 9.07 0 0 0 182.819 16.449 A 10.999 10.999 0 0 0 182.04 16.02 Q 179.88 14.94 177.42 14.94 Q 174.96 14.94 172.8 16.02 A 9.992 9.992 0 0 0 170.542 17.546 A 8.699 8.699 0 0 0 169.35 18.87 A 6.898 6.898 0 0 0 168.373 20.722 A 5.884 5.884 0 0 0 168.06 22.62 Z" vector-effect="non-scaling-stroke"/></g></svg>